<svg version="1.1" id="Layer_1" xmlns="http://www.w3.org/2000/svg" xmlns:xlink="http://www.w3.org/1999/xlink" x="0px" y="0px"
	 width="100%" viewBox="0 0 120 120" enable-background="new 0 0 120 120" xml:space="preserve">
<path fill="#FEFFFE" opacity="1.000000" stroke="none" 
	d="
M77.000000,121.000000 
	C51.333332,121.000000 26.166666,121.000000 1.000000,121.000000 
	C1.000000,81.000000 1.000000,41.000000 1.000000,1.000000 
	C41.000000,1.000000 81.000000,1.000000 121.000000,1.000000 
	C121.000000,41.000000 121.000000,81.000000 121.000000,121.000000 
	C106.500000,121.000000 92.000000,121.000000 77.000000,121.000000 
M76.270721,96.577759 
	C76.716232,97.439056 77.153893,98.304520 77.608505,99.160988 
	C81.250702,106.022881 88.808311,108.833755 95.476028,105.809608 
	C102.230423,102.746147 106.061630,93.814529 102.499382,87.256889 
	C100.690163,83.926338 96.814438,81.718338 94.146408,78.375107 
	C99.260277,73.622803 104.333427,68.825554 109.507202,64.139381 
	C111.707031,62.146881 112.384209,60.379566 111.161842,57.246506 
	C106.534714,45.386703 102.241066,33.391956 98.073700,21.360743 
	C96.916451,18.019768 95.188477,16.697905 91.652985,16.717850 
	C71.332397,16.832487 51.010551,16.828703 30.689873,16.723339 
	C27.044621,16.704441 25.103811,17.836529 23.851606,21.521730 
	C19.810341,33.415066 15.443663,45.202812 10.943203,56.931797 
	C9.744628,60.055492 10.155488,62.018307 12.616286,64.279701 
	C27.535999,77.990448 42.356167,91.810295 57.126019,105.682678 
	C60.025700,108.406166 62.340405,108.165482 65.096191,105.512207 
	C68.552475,102.184502 72.279907,99.138428 76.270721,96.577759 
z"/>
<path fill="#24A67A" opacity="1.000000" stroke="none" 
	d="
M75.890312,95.970802 
	C72.279907,99.138428 68.552475,102.184502 65.096191,105.512207 
	C62.340405,108.165482 60.025700,108.406166 57.126019,105.682678 
	C42.356167,91.810295 27.535999,77.990448 12.616286,64.279701 
	C10.155488,62.018307 9.744628,60.055492 10.943203,56.931797 
	C15.443663,45.202812 19.810341,33.415066 23.851606,21.521730 
	C25.103811,17.836529 27.044621,16.704441 30.689873,16.723339 
	C51.010551,16.828703 71.332397,16.832487 91.652985,16.717850 
	C95.188477,16.697905 96.916451,18.019768 98.073700,21.360743 
	C102.241066,33.391956 106.534714,45.386703 111.161842,57.246506 
	C112.384209,60.379566 111.707031,62.146881 109.507202,64.139381 
	C104.333427,68.825554 99.260277,73.622803 93.573380,78.689430 
	C89.383789,79.756996 85.365646,79.758446 82.238914,81.428665 
	C76.679192,84.398514 75.658157,90.081276 75.890312,95.970802 
M32.239407,53.067368 
	C32.302620,54.405098 31.891365,56.579075 32.513355,56.931976 
	C34.873856,58.271282 37.497940,59.352894 40.153893,59.919731 
	C45.043499,60.963284 50.025345,61.574654 55.263428,62.413319 
	C55.263428,70.163742 55.263428,77.427261 55.263428,84.581207 
	C59.385017,84.581207 63.103951,84.581207 67.139557,84.581207 
	C67.139557,76.909363 67.139557,69.618935 67.139557,62.266651 
	C72.303223,61.478283 77.291084,61.198612 81.964005,59.837589 
	C85.196716,58.896038 87.994759,56.462074 90.987030,54.694988 
	C87.953262,53.130562 85.072433,50.979115 81.849823,50.139465 
	C77.031242,48.883984 71.972191,48.551441 67.269043,47.863411 
	C67.269043,45.554226 67.269043,43.955441 67.269043,41.843639 
	C73.258575,41.843639 78.995171,41.843639 84.615067,41.843639 
	C84.615067,37.595272 84.615067,33.874119 84.615067,30.312160 
	C68.632301,30.312160 53.038986,30.312160 37.453640,30.312160 
	C37.453640,34.349403 37.453640,38.065659 37.453640,42.001678 
	C41.653118,42.001678 45.480885,41.888134 49.297531,42.045033 
	C51.522625,42.136501 55.179848,40.868279 54.723392,44.858418 
	C54.547771,46.393642 51.590305,47.834976 49.655655,48.854969 
	C48.605598,49.408585 46.963074,48.707958 45.723354,49.055984 
	C41.425716,50.262447 37.187473,51.680508 32.974804,52.997166 
	C32.974804,52.997166 32.996616,52.949490 32.239407,53.067368 
z"/>
<path fill="#E13224" opacity="1.000000" stroke="none" 
	d="
M76.080521,96.274277 
	C75.658157,90.081276 76.679192,84.398514 82.238914,81.428665 
	C85.365646,79.758446 89.383789,79.756996 93.436630,79.003311 
	C96.814438,81.718338 100.690163,83.926338 102.499382,87.256889 
	C106.061630,93.814529 102.230423,102.746147 95.476028,105.809608 
	C88.808311,108.833755 81.250702,106.022881 77.608505,99.160988 
	C77.153893,98.304520 76.716232,97.439056 76.080521,96.274277 
M90.005547,98.603783 
	C92.516136,95.036766 95.026718,91.469749 97.537308,87.902740 
	C96.875290,87.379845 96.213272,86.856949 95.551254,86.334045 
	C93.024803,89.264175 90.498352,92.194298 88.005821,95.085083 
	C86.539268,93.460075 85.307709,92.095451 83.695305,90.308838 
	C82.939316,95.767906 85.871605,99.642426 90.005547,98.603783 
z"/>
<path fill="#FDFEFE" opacity="1.000000" stroke="none" 
	d="
M32.926632,53.018059 
	C37.187473,51.680508 41.425716,50.262447 45.723354,49.055984 
	C46.963074,48.707958 48.605598,49.408585 49.655655,48.854969 
	C51.590305,47.834976 54.547771,46.393642 54.723392,44.858418 
	C55.179848,40.868279 51.522625,42.136501 49.297531,42.045033 
	C45.480885,41.888134 41.653118,42.001678 37.453640,42.001678 
	C37.453640,38.065659 37.453640,34.349403 37.453640,30.312160 
	C53.038986,30.312160 68.632301,30.312160 84.615067,30.312160 
	C84.615067,33.874119 84.615067,37.595272 84.615067,41.843639 
	C78.995171,41.843639 73.258575,41.843639 67.269043,41.843639 
	C67.269043,43.955441 67.269043,45.554226 67.269043,47.863411 
	C71.972191,48.551441 77.031242,48.883984 81.849823,50.139465 
	C85.072433,50.979115 87.953262,53.130562 90.987030,54.694988 
	C87.994759,56.462074 85.196716,58.896038 81.964005,59.837589 
	C77.291084,61.198612 72.303223,61.478283 67.139557,62.266651 
	C67.139557,69.618935 67.139557,76.909363 67.139557,84.581207 
	C63.103951,84.581207 59.385017,84.581207 55.263428,84.581207 
	C55.263428,77.427261 55.263428,70.163742 55.263428,62.413319 
	C50.025345,61.574654 45.043499,60.963284 40.153893,59.919731 
	C37.497940,59.352894 34.873856,58.271282 32.513355,56.931976 
	C31.891365,56.579075 32.302620,54.405098 32.926941,53.317245 
	C33.042034,58.385223 37.555367,57.561028 39.494389,57.773594 
	C49.782391,58.901428 60.154121,59.915527 70.482056,59.786358 
	C76.721016,59.708332 82.933105,57.480740 89.157265,56.218990 
	C89.119354,55.546452 89.081444,54.873913 89.043526,54.201374 
	C82.369003,50.327518 75.028580,49.670944 67.230339,50.129436 
	C67.051140,52.919895 66.896904,55.321537 66.745354,57.681358 
	C62.646915,57.681358 58.916039,57.681358 55.211712,57.681358 
	C54.729317,49.814507 52.939869,48.510109 45.371197,50.209938 
	C41.222065,51.141785 37.074760,52.081753 32.926632,53.018059 
z"/>
<path fill="#FCF8F7" opacity="1.000000" stroke="none" 
	d="
M89.838333,98.928696 
	C85.871605,99.642426 82.939316,95.767906 83.695305,90.308838 
	C85.307709,92.095451 86.539268,93.460075 88.005821,95.085083 
	C90.498352,92.194298 93.024803,89.264175 95.551254,86.334045 
	C96.213272,86.856949 96.875290,87.379845 97.537308,87.902740 
	C95.026718,91.469749 92.516136,95.036766 89.838333,98.928696 
z"/>
<path fill="#25A57A" opacity="1.000000" stroke="none" 
	d="
M32.950718,53.007614 
	C37.074760,52.081753 41.222065,51.141785 45.371197,50.209938 
	C52.939869,48.510109 54.729317,49.814507 55.211712,57.681358 
	C58.916039,57.681358 62.646915,57.681358 66.745354,57.681358 
	C66.896904,55.321537 67.051140,52.919895 67.230339,50.129436 
	C75.028580,49.670944 82.369003,50.327518 89.043526,54.201374 
	C89.081444,54.873913 89.119354,55.546452 89.157265,56.218990 
	C82.933105,57.480740 76.721016,59.708332 70.482056,59.786358 
	C60.154121,59.915527 49.782391,58.901428 39.494389,57.773594 
	C37.555367,57.561028 33.042034,58.385223 33.305542,53.258308 
	C32.996616,52.949490 32.974804,52.997166 32.950718,53.007614 
z"/>
</svg>